# xmcd CD database file
#
# Track frame offsets:
#	150
#	21675
#	46012
#	63697
#	86018
#	108968
#	133095
#	150007
#	170197
#	190420
#	209890
#	229570
#
# Disc length: 3389 seconds
#
# Revision: 2
# Processed by: cddbd v1.5.2PL0 Copyright (c) Steve Scherf et al.
# Submitted via: Fey Extractor 
#
DISCID=a90d3b0c
DTITLE=Various Bhangra Artists / Bollywood Dance
DYEAR=2006
DGENRE=Indian
TTITLE0=Chann Vargi - Ashok Masti
TTITLE1=Sun Jatiye - Jasbir Jassi
TTITLE2=Laththe Di Chadar - Rajeshwari Sachdev
TTITLE3=Chakdoom - Ashoo Punjabi
TTITLE4=Jaandi Jaandi - Preet Brar
TTITLE5=Teri Chadti Jawanni - Jasbir Jassi
TTITLE6=Mahiya Ve - Shweta Pandit- Sukhwinder Singh
TTITLE7=Punjabiyan da dhol - Vikrant Singh
TTITLE8=Kehdi Banh Farha - Kebi Dhindsa
TTITLE9=Saara Punjabi - Vikrant Singh
TTITLE10=Pyar Mere - Jasbir Jassi
TTITLE11=Tauba Tauba - Ashoo Punjabi
EXTD= YEAR: 2006
EXTT0=
EXTT1=
EXTT2=
EXTT3=
EXTT4=
EXTT5=
EXTT6=
EXTT7=
EXTT8=
EXTT9=
EXTT10=
EXTT11=
PLAYORDER=
.
